<?xml version="1.0" encoding="UTF-8"?>
<!DOCTYPE svg PUBLIC "-//W3C//DTD SVG 1.1//EN" "http://www.w3.org/Graphics/SVG/1.1/DTD/svg11.dtd">
<svg xmlns="http://www.w3.org/2000/svg" version="1.1" width="80px" height="80px" style="shape-rendering:geometricPrecision; text-rendering:geometricPrecision; image-rendering:optimizeQuality; fill-rule:evenodd; clip-rule:evenodd" xmlns:xlink="http://www.w3.org/1999/xlink">
<g><path style="opacity:0.701" fill="#000000" d="M 32.5,8.5 C 36.1817,8.3347 39.8484,8.50137 43.5,9C 46.0618,11.4133 49.0618,13.08 52.5,14C 53.7014,14.9025 54.5348,16.0692 55,17.5C 55.6667,24.1667 55.6667,30.8333 55,37.5C 52.2338,42.0328 49.7338,46.6995 47.5,51.5C 54.2243,52.7787 60.0576,55.7787 65,60.5C 65.4983,63.8168 65.665,67.1501 65.5,70.5C 48.1667,70.5 30.8333,70.5 13.5,70.5C 11.9273,64.005 13.9273,59.1717 19.5,56C 23.3418,53.9983 27.3418,52.4983 31.5,51.5C 29.2662,46.6995 26.7662,42.0328 24,37.5C 23.6667,32.8333 23.3333,28.1667 23,23.5C 21.9328,22.0569 20.7662,20.7236 19.5,19.5C 22.9735,14.6832 27.3069,11.0165 32.5,8.5 Z M 33.5,11.5 C 40.6517,11.1335 46.8183,13.4668 52,18.5C 52.6667,19.8333 52.6667,21.1667 52,22.5C 49.6311,17.6994 46.4644,16.866 42.5,20C 38.8136,20.5588 35.147,21.2255 31.5,22C 29.3333,22.8333 27.8333,24.3333 27,26.5C 26.6253,23.9999 25.7919,21.6666 24.5,19.5C 26.9257,16.0677 29.9257,13.4011 33.5,11.5 Z M 45.5,21.5 C 47.0174,21.5106 48.1841,22.1772 49,23.5C 49.9449,27.1141 50.6116,30.7808 51,34.5C 51.6543,33.3044 52.1543,33.3044 52.5,34.5C 50.2612,37.0911 48.7612,40.0911 48,43.5C 42.3333,50.1667 36.6667,50.1667 31,43.5C 30.2388,40.0911 28.7388,37.0911 26.5,34.5C 26.8457,33.3044 27.3457,33.3044 28,34.5C 28.3958,31.3036 29.5625,28.4703 31.5,26C 36.2875,24.4569 40.9542,22.9569 45.5,21.5 Z M 33.5,50.5 C 37.5,51.8333 41.5,51.8333 45.5,50.5C 45.9923,55.0059 43.9923,57.3392 39.5,57.5C 35.0077,57.3392 33.0077,55.0059 33.5,50.5 Z M 29.5,54.5 C 31.0789,56.2302 32.7455,58.0636 34.5,60C 37.8333,60.6667 41.1667,60.6667 44.5,60C 46.422,58.5804 47.7554,56.7471 48.5,54.5C 54.5985,56.114 59.4318,59.4474 63,64.5C 63.49,65.7932 63.6567,67.1266 63.5,68.5C 47.5,68.5 31.5,68.5 15.5,68.5C 15.372,66.3453 15.872,64.3453 17,62.5C 20.6715,58.9227 24.8381,56.2561 29.5,54.5 Z"/></g>
<g><path style="opacity:0.766" fill="#000000" d="M 32.5,32.5 C 33.5,32.5 34.5,32.5 35.5,32.5C 35.5,33.5 35.5,34.5 35.5,35.5C 34.5,35.5 33.5,35.5 32.5,35.5C 32.5,34.5 32.5,33.5 32.5,32.5 Z"/></g>
<g><path style="opacity:0.766" fill="#000000" d="M 43.5,32.5 C 44.5,32.5 45.5,32.5 46.5,32.5C 46.5,33.5 46.5,34.5 46.5,35.5C 45.5,35.5 44.5,35.5 43.5,35.5C 43.5,34.5 43.5,33.5 43.5,32.5 Z"/></g>
<g><path style="opacity:0.766" fill="#000000" d="M 18.5,64.5 C 20.337,64.6395 20.6704,65.3061 19.5,66.5C 18.7025,66.0431 18.3691,65.3764 18.5,64.5 Z"/></g>
<g><path style="opacity:0.766" fill="#000000" d="M 22.5,64.5 C 24.337,64.6395 24.6704,65.3061 23.5,66.5C 22.7025,66.0431 22.3691,65.3764 22.5,64.5 Z"/></g>
<g><path style="opacity:0.766" fill="#000000" d="M 26.5,64.5 C 28.337,64.6395 28.6704,65.3061 27.5,66.5C 26.7025,66.0431 26.3691,65.3764 26.5,64.5 Z"/></g>
<g><path style="opacity:0.766" fill="#000000" d="M 30.5,64.5 C 32.337,64.6395 32.6704,65.3061 31.5,66.5C 30.7025,66.0431 30.3691,65.3764 30.5,64.5 Z"/></g>
<g><path style="opacity:0.766" fill="#000000" d="M 34.5,64.5 C 36.337,64.6395 36.6704,65.3061 35.5,66.5C 34.7025,66.0431 34.3691,65.3764 34.5,64.5 Z"/></g>
<g><path style="opacity:0.766" fill="#000000" d="M 38.5,64.5 C 40.337,64.6395 40.6704,65.3061 39.5,66.5C 38.7025,66.0431 38.3691,65.3764 38.5,64.5 Z"/></g>
<g><path style="opacity:0.766" fill="#000000" d="M 42.5,64.5 C 44.337,64.6395 44.6704,65.3061 43.5,66.5C 42.7025,66.0431 42.3691,65.3764 42.5,64.5 Z"/></g>
<g><path style="opacity:0.766" fill="#000000" d="M 46.5,64.5 C 48.337,64.6395 48.6704,65.3061 47.5,66.5C 46.7025,66.0431 46.3691,65.3764 46.5,64.5 Z"/></g>
<g><path style="opacity:0.766" fill="#000000" d="M 50.5,64.5 C 52.337,64.6395 52.6704,65.3061 51.5,66.5C 50.7025,66.0431 50.3691,65.3764 50.5,64.5 Z"/></g>
<g><path style="opacity:0.766" fill="#000000" d="M 54.5,64.5 C 56.337,64.6395 56.6704,65.3061 55.5,66.5C 54.7025,66.0431 54.3691,65.3764 54.5,64.5 Z"/></g>
<g><path style="opacity:0.766" fill="#000000" d="M 58.5,64.5 C 60.337,64.6395 60.6704,65.3061 59.5,66.5C 58.7025,66.0431 58.3691,65.3764 58.5,64.5 Z"/></g>
</svg>
